<svg viewBox="0 0 30 30"><path d="m12.27 18.29 6.73-3.5-6.73-3.5v7Zm0 0" style="stroke:none;fill-rule:nonzero;fill:currentColor;fill-opacity:1"/><path d="M15 0a15 15 0 1 0 0 30 15 15 0 0 0 0-30Zm10.22 20a2.67 2.67 0 0 1-2.29 2.09c-2.63.3-5.29.3-7.93.3-2.65 0-5.3 0-7.93-.3A2.67 2.67 0 0 1 4.77 20c-.36-1.6-.36-3.36-.36-5.01s0-3.4.37-5A2.68 2.68 0 0 1 7.07 7.9c2.63-.3 5.29-.3 7.93-.3 2.65 0 5.3 0 7.93.3 1.11.13 2.03.96 2.3 2.08.36 1.6.36 3.36.36 5.01s0 3.4-.37 5Zm0 0" style="stroke:none;fill-rule:nonzero;fill:currentColor;fill-opacity:1"/></svg>